<svg width="120" height="145" viewBox="0 0 120 145" fill="none" xmlns="http://www.w3.org/2000/svg">
<path d="M0.733594 2.46667C0.333594 3.66667 0.333594 11.6667 0.733594 20.2C1.66693 38.7333 4.86693 48.7333 12.4669 56.8667L17.4003 62.3333L12.0669 66.8667C2.06693 75.2667 1.13359 79.4 1.00026 113.667V143.667H42.3336L42.7336 121C43.0003 97.1333 43.5336 93.6667 45.8003 95.9333C46.6003 96.7333 51.9336 107.4 57.9336 119.8C63.8003 132.2 69.2669 142.733 70.2003 143.267C72.3336 144.733 118.734 144.6 119.534 143.133C119.934 142.6 112.734 129.8 103.534 114.867L86.7336 87.8L89.8003 85.6667C103.667 76.7333 111.534 63 111.534 47.6667C111.534 30.4667 105.534 18.7333 92.2003 9.8C80.0669 1.66667 71.8003 0.333344 33.6669 0.333344C5.40026 0.333344 1.53359 0.600008 0.733594 2.46667ZM82.4669 29.5333C89.4003 32.6 90.6003 34.4667 87.8003 37.5333C86.6003 38.8667 85.6669 40.7333 85.9336 41.8C86.2003 42.7333 88.3 39.8667 87.5 40C87.5 35.5 84.6842 44.6333 83.3509 46.5L85 44.5C83.1997 46.7 81.9336 48.3333 78.0669 51.9333C72.3336 57.5333 69.4003 59.2667 59.9336 62.2C53.6669 64.2 45.1336 66.2 41.0003 66.6C34.2003 67.2667 33.4003 67.1333 32.7336 64.4667C31.9336 61.1333 30.6003 60.8667 28.4669 63.5333C25.8003 66.6 21.9336 65.5333 20.3336 61.2667C19.4003 58.3333 19.5336 57 20.8669 55.5333C23.2669 53.2667 27.8003 53.1333 28.8669 55.2667C29.8003 57.2667 28.7336 50.7333 27.6669 47.9333C27.1336 46.7333 29.0003 44.6 33.4003 41.8C41.1336 36.8667 55.0003 29.8 60.0669 28.3333C66.4669 26.3333 76.7336 27 82.4669 29.5333ZM39.6669 31.2667C41.5336 32.0667 43.0003 33.1333 43.0003 33.5333C42.8669 33.9333 39.2669 36.6 34.7336 39.4C27.2669 44.0667 26.4669 44.3333 22.8669 42.7333C20.7336 41.8 19.1336 40.4667 19.4003 39.6667C19.8003 38.3333 33.4003 29.6667 35.2669 29.6667C35.8003 29.6667 37.8003 30.3333 39.6669 31.2667ZM53.6669 66.3333C53.6669 66.8667 52.7336 68.8667 51.6669 71C49.6669 74.8667 45.8003 76.6 36.0669 78.3333C30.4669 79.2667 30.3336 79 32.6003 72.7333C33.9336 69 34.8669 68.3333 39.0003 68.2C41.5336 68.0667 45.5336 67.5333 47.6669 67C53.1336 65.6667 53.6669 65.5333 53.6669 66.3333Z" fill="black"/>
<path d="M63.8003 34.4667C62.6003 35.5333 61.6669 37.5333 61.8003 38.7333C61.8003 40.3333 62.2003 40.0667 63.0003 37.9333C63.6669 36.3333 65.6669 34.3333 67.2669 33.6667C69.4003 32.8667 69.6669 32.4667 68.0669 32.4667C66.8669 32.3333 64.8669 33.2667 63.8003 34.4667Z" fill="black"/>
</svg>
